# xmcd CD database file
#
# Track frame offsets:
#	150
#	26889
#	52299
#	77601
#	95604
#	117755
#	141083
#	161931
#	196733
#	216346
#	233102
#	256428
#	282420
#	295221
#	321534
#
# Disc length: 4648 seconds
#
# Revision: 0
# Processed by: cddbd v1.5.2PL0 Copyright (c) Steve Scherf et al.
# Submitted via: CDex 1.70beta2
#
DISCID=ed12260f
DTITLE=The Young Pekáč - Trbukya
DYEAR=2004
DGENRE=Jazz
TTITLE0=Blues March
TTITLE1=Pelaba
TTITLE2=Summer Time
TTITLE3=Hřebenovka
TTITLE4=Moon River
TTITLE5=Strécovská 12
TTITLE6=Mobatela
TTITLE7=Maiden Voyage
TTITLE8=Solar
TTITLE9=The Girl From Ipanema
TTITLE10=Horská přirážka
TTITLE11=Contact
TTITLE12=Dívka k rytmu zrozená
TTITLE13=Tenor Madness
TTITLE14=Trbukya
EXTD=YEAR: 2004
EXTT0=
EXTT1=
EXTT2=
EXTT3=
EXTT4=
EXTT5=
EXTT6=
EXTT7=
EXTT8=
EXTT9=
EXTT10=
EXTT11=
EXTT12=
EXTT13=
EXTT14=
PLAYORDER=
